<svg xmlns="http://www.w3.org/2000/svg" width="512" height="512" viewBox="0 0 512 512" version="1.1">
	<path d="M 252.200 14.200 C 251.503 14.897, 251 18.237, 251 22.165 L 251 28.930 240.750 29.215 C 231.262 29.479, 230.500 29.649, 230.500 31.500 C 230.500 33.333, 231.333 33.542, 240.500 34 L 250.500 34.500 250.798 40.750 L 251.095 47 246.798 47.015 C 234.530 47.057, 233.625 56.717, 245.768 58 L 250.500 58.500 250.794 66.336 C 250.991 71.591, 250.743 73.959, 250.044 73.527 C 249.470 73.172, 249 71.281, 249 69.324 L 249 65.767 242.250 66.470 C 233.366 67.396, 223.033 69.546, 215 72.142 C 206.124 75.010, 192 81.066, 192 82.004 C 192 82.425, 193.040 83.452, 194.312 84.285 C 197.336 86.266, 199 92.077, 199 100.656 C 199 117.978, 189.378 137.675, 176.624 146.459 C 170.686 150.549, 169.731 152, 172.977 152 C 174.064 152, 175.632 153.035, 176.462 154.301 C 178.463 157.355, 179.654 169.638, 178.875 179.198 C 177.731 193.260, 169.020 214.794, 158.601 229.315 C 155.520 233.609, 153 237.563, 153 238.104 C 153 238.644, 155.127 241.360, 157.728 244.140 C 162.292 249.020, 162.387 249.243, 160.478 250.617 C 145.732 261.230, 116.056 283.673, 116.032 284.231 C 116.014 284.633, 118.137 286.074, 120.750 287.434 C 123.362 288.794, 125.145 289.928, 124.710 289.953 C 124.276 289.979, 122.248 289.147, 120.205 288.104 C 113.262 284.562, 108.762 283.864, 100.826 285.095 C 91.624 286.523, 80.961 290.098, 75.883 293.459 C 71.777 296.176, 71.635 296.998, 74.110 303.719 L 74.927 305.938 81.688 303.393 C 85.646 301.903, 88.589 301.267, 88.786 301.859 C 88.972 302.415, 90.463 304.719, 92.099 306.978 L 95.075 311.086 92.822 314.250 C 89.329 319.156, 89.079 328.309, 92.249 335.234 C 95.465 342.258, 100.039 346.584, 111.456 353.396 C 130.291 364.636, 141.420 379.821, 154.654 412.338 C 165.777 439.668, 175.224 453.994, 196.601 475.952 L 209.703 489.409 216.101 484.318 C 219.621 481.518, 224.421 478.226, 226.769 477.003 C 231.016 474.789, 231.098 474.786, 242.269 476.367 C 282.488 482.058, 294.344 481.226, 314.750 471.279 C 321.646 467.918, 324.565 465.061, 319.750 466.386 C 299.517 471.951, 285.680 472.115, 261.264 467.077 C 227.430 460.096, 204.259 449.076, 185.765 431.171 C 173.838 419.624, 169.236 412.343, 153.420 380 C 149.251 371.475, 143.176 360.178, 139.920 354.896 C 136.664 349.614, 134 345.001, 134 344.646 C 134 344.291, 134.638 344, 135.417 344 C 137.890 344, 144.822 355.737, 157.977 382.200 C 174.295 415.025, 180.724 423.976, 196.948 436.460 C 212.993 448.807, 243.722 460.762, 273.127 466.098 C 279.206 467.201, 280.776 467.076, 292.127 464.584 C 310.918 460.459, 352.729 445.745, 368.801 437.601 C 373.596 435.171, 373.908 434.789, 373.356 432.029 C 373.030 430.399, 373.069 427.029, 373.442 424.539 C 374.024 420.655, 374.733 419.592, 378.437 417.043 C 382.579 414.193, 382.772 413.832, 383.183 408.141 C 383.534 403.300, 384.314 401.190, 387.427 396.670 C 390.937 391.574, 391.152 390.875, 390.121 387.917 C 388.203 382.416, 388.668 380.012, 391.864 378.898 C 394.658 377.924, 394.741 377.684, 395.261 369.200 C 395.899 358.780, 399.607 346.461, 404.215 339.452 C 406.006 336.728, 410.065 331.899, 413.235 328.719 L 419 322.939 419.006 311.719 C 419.013 297.824, 420.332 289.394, 423.082 285.675 C 424.957 283.139, 425.122 281.966, 424.560 275.160 C 424.212 270.947, 424.342 263.232, 424.849 258.016 C 425.767 248.556, 425.780 248.523, 429.968 244.806 C 432.278 242.757, 433.896 240.641, 433.564 240.104 C 433.225 239.555, 429.387 239.265, 424.789 239.441 C 415.592 239.793, 414.027 240.840, 411.853 248.097 L 410.683 252 395.296 252 L 379.909 252 380.586 248.250 C 381.536 242.984, 381.515 243, 387.559 243 C 390.552 243, 393 242.582, 393 242.071 C 393 241.560, 390.637 240.450, 387.750 239.605 C 380.421 237.459, 378.425 235.756, 376.189 229.741 C 371.429 216.933, 370.952 200.813, 374.950 187.888 C 377.782 178.733, 380.109 176, 385.073 176 C 387.233 176, 389 175.527, 389 174.949 C 389 173.259, 383.041 171.294, 375.570 170.520 C 371.758 170.125, 367.708 169.404, 366.570 168.917 C 364.992 168.243, 365.331 168.136, 368 168.469 C 377.313 169.629, 384 170.036, 384 169.444 C 384 169.083, 382.647 167.079, 380.993 164.991 C 376.763 159.650, 372.209 149.486, 370.899 142.463 C 368.485 129.521, 373.148 113, 379.214 113 C 382.545 113, 380.172 111.176, 370.132 106.019 C 364.757 103.258, 358.414 99.335, 356.038 97.301 L 351.718 93.603 343.109 95.805 C 338.374 97.016, 334.163 98.005, 333.750 98.003 C 333.337 98.001, 333 96.031, 333 93.624 L 333 89.248 338.499 88.792 C 344.946 88.257, 345.332 87.983, 345.220 84.027 C 345.093 79.582, 344.367 79, 338.941 79 C 334.738 79, 334 78.714, 334 77.083 C 334 76.029, 334.563 74.963, 335.250 74.714 C 336.250 74.352, 336.250 73.838, 335.250 72.144 C 333.845 69.765, 333.527 62.590, 334.863 63.415 C 335.337 63.709, 336.296 65.985, 336.993 68.474 C 338.271 73.039, 341 74.759, 341 71 C 341 69.900, 340.605 69, 340.121 69 C 338.021 69, 335.555 58.701, 337.005 55.990 C 338.370 53.439, 343.143 50.994, 346.700 51.022 L 349.500 51.044 347 52.985 C 345.625 54.052, 343.262 55.203, 341.749 55.542 C 339.972 55.941, 338.788 56.996, 338.405 58.523 C 337.558 61.899, 338.776 63.492, 340.849 61.717 C 343.883 59.120, 345.628 59.175, 349.836 62.002 C 352.193 63.584, 354.826 64.597, 355.872 64.323 C 356.893 64.056, 360.152 61.335, 363.114 58.277 C 366.207 55.084, 367.648 53.024, 366.500 53.440 C 365.400 53.839, 362.137 54.416, 359.250 54.722 C 353.277 55.357, 352.756 54.556, 356.093 49.869 C 357.774 47.509, 357.947 46.641, 356.971 45.465 C 355.500 43.693, 352.794 43.621, 346.057 45.176 C 341.444 46.241, 340.429 46.132, 335.332 44.019 C 329.893 41.764, 329.657 41.748, 328.352 43.534 C 327.608 44.551, 327 47.771, 327 50.691 L 327 56 318 56 C 309.894 56, 309 56.185, 309 57.859 C 309 59.485, 310.075 59.785, 317.560 60.252 C 322.268 60.546, 326.277 60.947, 326.471 61.143 C 326.664 61.339, 327.133 63.169, 327.515 65.210 L 328.207 68.919 319.354 69.210 C 311.263 69.475, 310.500 69.672, 310.500 71.500 C 310.500 73.315, 311.263 73.527, 318.750 73.790 C 326.672 74.069, 327 74.175, 327 76.442 C 327 78.587, 326.444 78.868, 320.941 79.507 C 316.901 79.976, 314.277 80.859, 313.067 82.158 C 311.269 84.088, 311.192 84.086, 304.876 81.970 C 296.392 79.127, 288.783 74.690, 282.258 68.781 C 277.347 64.333, 276.591 63.980, 273.200 64.546 C 269.461 65.170, 260.369 67.538, 257.537 68.624 C 256.280 69.107, 256 68.298, 256 64.179 L 256 59.144 261.750 58.447 C 269.649 57.489, 271 56.620, 271 52.500 C 271 48.322, 268.973 47, 262.566 47 L 258 47 258.079 42.750 C 258.122 40.413, 258.385 39.063, 258.662 39.750 C 258.940 40.438, 259.595 41, 260.118 41 C 260.685 41, 260.793 38.919, 260.386 35.849 C 259.886 32.082, 260.011 30.889, 260.851 31.408 C 261.483 31.799, 262 33.435, 262 35.044 L 262 37.971 265.250 35.989 C 269.730 33.258, 272.143 33.496, 275.500 37 C 280.564 42.285, 284.321 41.140, 297.327 30.346 C 300.652 27.586, 299.903 27.500, 290.195 29.526 C 279.987 31.655, 278.997 30.747, 283.999 23.843 C 286.452 20.456, 286.774 19.432, 285.765 18.216 C 284.760 17.006, 282.761 16.846, 274.989 17.355 C 266.101 17.938, 265.127 17.810, 260.770 15.490 C 255.525 12.698, 253.940 12.460, 252.200 14.200 M 257 25 C 257 27.816, 257.427 29, 258.441 29 C 259.234 29, 260.165 28.543, 260.510 27.984 C 261.429 26.497, 263 27.808, 263 30.062 C 263 31.788, 263.676 31.584, 269 28.256 C 272.300 26.193, 275 24.167, 275 23.753 C 275 22.582, 272.267 22.862, 268.559 24.411 C 265.375 25.741, 265.052 25.684, 262.916 23.411 C 261.671 22.085, 259.830 21, 258.826 21 C 257.362 21, 257 21.794, 257 25 M 332 51.833 C 332 56.848, 332.688 57.358, 336.137 54.902 C 339.745 52.334, 339.730 51.429, 336.050 49.526 C 332.042 47.453, 332 47.477, 332 51.833 M 245 53 C 243.862 53.736, 244.284 53.973, 246.750 53.985 C 248.537 53.993, 250 53.550, 250 53 C 250 51.730, 246.965 51.730, 245 53 M 257.813 52.683 C 258.534 52.972, 259.397 52.936, 259.729 52.604 C 260.061 52.272, 259.471 52.036, 258.417 52.079 C 257.252 52.127, 257.015 52.364, 257.813 52.683 M 263.800 53.200 C 264.733 54.133, 265.267 54.133, 266.200 53.200 C 267.133 52.267, 266.867 52, 265 52 C 263.133 52, 262.867 52.267, 263.800 53.200 M 322.500 83.961 C 320.108 84.539, 319.843 84.836, 321.192 85.427 C 323.424 86.406, 326.230 85.812, 326.750 84.250 C 327.202 82.894, 326.980 82.879, 322.500 83.961 M 333.500 84 C 333.160 84.550, 333.332 85, 333.882 85 C 334.432 85, 335.160 84.550, 335.500 84 C 335.840 83.450, 335.668 83, 335.118 83 C 334.568 83, 333.840 83.450, 333.500 84 M 338.229 84.188 C 338.847 86.042, 341 86.349, 341 84.583 C 341 83.713, 340.288 83, 339.417 83 C 338.546 83, 338.011 83.534, 338.229 84.188 M 202.487 86.750 C 206.815 97.553, 203.310 118.650, 194.923 132.280 C 193.252 134.996, 192.042 137.376, 192.235 137.568 C 192.428 137.761, 196.084 136.808, 200.359 135.451 C 209.865 132.432, 223.504 130.245, 235.483 129.819 L 244.466 129.500 245.164 134.350 C 246.489 143.551, 248.553 144.850, 249.577 137.128 C 250.609 129.353, 250.509 129.407, 261.325 130.773 C 270.645 131.950, 291.523 137.668, 297.176 140.591 L 300.081 142.093 297.679 137.297 C 292.782 127.519, 291.538 122.107, 291.518 110.500 C 291.500 99.202, 292.380 95.358, 296.284 89.692 C 297.348 88.148, 298.009 86.675, 297.753 86.419 C 297.496 86.163, 290.723 85.670, 282.701 85.324 L 268.115 84.694 267.584 87.097 C 265.887 94.780, 264.866 102.795, 264.316 112.750 C 263.974 118.938, 263.313 124, 262.847 124 C 261.436 124, 261.898 103.707, 263.500 95.338 C 265.458 85.105, 265.435 84.799, 262.750 85.180 C 260.984 85.431, 260.247 86.525, 259.324 90.263 C 257.728 96.732, 256.006 111.237, 256.003 118.250 L 256 124 249.025 124 L 242.050 124 242.496 121.250 C 242.741 119.737, 243.431 115.125, 244.030 111 C 244.629 106.875, 245.803 99.981, 246.639 95.680 C 248.272 87.284, 247.987 84.684, 245.534 85.625 C 243.671 86.340, 241.654 93.025, 238.076 110.339 C 236.516 117.891, 234.849 123.550, 234.114 123.795 C 233.145 124.118, 233.005 123.069, 233.524 119.359 C 234.667 111.176, 238.008 96.290, 240.002 90.495 L 241.892 85 221.839 85 C 203.141 85, 201.833 85.118, 202.487 86.750 M 306.573 87.872 C 303.169 88.416, 302.342 89.098, 300.352 93 C 297.516 98.560, 297.379 100.332, 299.848 99.548 C 304.370 98.113, 317.614 96, 322.088 96 L 327 96 327 99.500 C 327 101.425, 327.450 103, 328 103 C 329.150 103, 329.264 100.205, 328.379 93.746 L 327.757 89.212 321.129 88.712 C 317.483 88.437, 313.600 87.994, 312.500 87.727 C 311.400 87.461, 308.733 87.526, 306.573 87.872 M 354.804 113.724 C 347.945 114.043, 347.034 114.318, 346.420 116.254 C 346.040 117.448, 345.453 124.967, 345.115 132.963 C 344.727 142.127, 344.130 147.315, 343.500 147 C 342.303 146.401, 342.189 132.547, 343.292 121.750 C 344.031 114.510, 343.958 114, 342.172 114 C 339.672 114, 338.020 122.063, 337.496 136.811 L 337.116 147.500 330.503 147.797 L 323.890 148.094 324.552 141.797 C 324.916 138.334, 326.065 131, 327.104 125.500 C 329.381 113.451, 329.365 114, 327.449 114 C 325.270 114, 323.596 118.589, 320.520 133 C 319.053 139.875, 317.452 146.498, 316.962 147.718 C 316.257 149.475, 316.527 150.255, 318.258 151.468 C 319.461 152.311, 321.613 153, 323.040 153 C 325.385 153, 325.725 153.505, 326.568 158.247 C 327.233 161.990, 328.002 163.588, 329.250 163.820 C 330.746 164.099, 331 163.339, 331 158.573 L 331 153 334.928 153 C 341.667 153, 353.663 155.004, 362.179 157.554 C 366.674 158.899, 370.478 160, 370.631 160 C 370.785 160, 369.716 156.963, 368.255 153.250 C 365.938 147.357, 365.596 145.039, 365.569 135 C 365.542 125.224, 365.866 122.788, 367.733 118.750 C 369.721 114.449, 369.767 113.999, 368.214 113.986 C 367.272 113.979, 365.600 113.836, 364.500 113.669 C 363.400 113.503, 359.037 113.527, 354.804 113.724 M 297 116.290 C 297 120.117, 299.834 129.739, 302.527 135.053 C 305.048 140.029, 311.508 148, 313.019 148 C 313.451 148, 315.029 142.734, 316.526 136.297 C 318.023 129.860, 320.068 122.210, 321.070 119.297 L 322.892 114 309.946 114 C 297.120 114, 297 114.021, 297 116.290 M 184.206 152.662 C 182.626 152.999, 182.070 153.671, 182.419 154.825 C 187.633 172.070, 184.953 190.006, 173.834 212.279 L 168.953 222.058 173.726 219.648 C 186.581 213.158, 208.426 208.252, 228.750 207.289 L 241 206.709 241.014 211.605 C 241.044 222.622, 243.560 223.806, 246.204 214.048 C 247.142 210.588, 248.155 207.512, 248.455 207.211 C 249.588 206.079, 269.588 210.114, 279.838 213.544 C 285.702 215.505, 294.727 219.336, 299.894 222.055 C 305.060 224.775, 309.454 227, 309.657 227 C 309.861 227, 309.291 225.313, 308.392 223.250 C 307.492 221.188, 305.385 215.450, 303.709 210.500 C 300.963 202.388, 300.660 200.267, 300.643 189 C 300.626 178.073, 300.963 175.477, 303.318 168.367 C 304.800 163.894, 306.685 159.676, 307.507 158.995 C 308.328 158.313, 309 157.430, 309 157.034 C 309 156.012, 274.700 154.900, 273.711 155.889 C 272.413 157.187, 270.197 172.700, 269.425 185.883 C 269.036 192.548, 268.330 198, 267.858 198 C 266.468 198, 266.887 178.328, 268.506 167.587 C 270.435 154.787, 270.436 154.797, 267.817 155.180 C 266.366 155.393, 265.365 156.505, 264.829 158.500 C 263.083 165.001, 261 183.563, 261 192.618 C 261 199.811, 260.692 202.065, 259.750 201.753 C 257.033 200.855, 257.957 177.696, 261.366 161.250 L 262.661 155 259.869 155 C 257.486 155, 256.932 155.549, 256.084 158.750 C 253.439 168.735, 252.917 172.559, 252.329 186.250 L 251.696 201 243.971 201 L 236.246 201 236.696 196.250 C 237.482 187.958, 241.077 167.062, 242.554 162.192 C 243.338 159.612, 243.983 156.713, 243.989 155.750 C 244.009 152.598, 240.933 153.916, 239.324 157.750 C 237.253 162.682, 232.378 182.033, 230.773 191.690 C 230.020 196.217, 228.958 199.523, 228.172 199.782 C 227.132 200.124, 226.990 199.166, 227.514 195.359 C 229.391 181.742, 233.944 163.189, 237.481 154.750 C 238.502 152.313, 234.415 152.355, 233.109 154.796 C 230.825 159.065, 224.072 180.313, 222.540 188.055 C 220.229 199.728, 220 200.400, 218.755 199.155 C 216.226 196.626, 223.288 168.703, 229.099 158.250 L 232.017 153 213.648 153 C 203.545 153, 193.304 152.814, 190.890 152.587 C 188.475 152.359, 185.468 152.393, 184.206 152.662 M 307.383 176.190 C 306.024 178.388, 305.752 192.598, 306.934 199.582 C 307.578 203.387, 308.904 208.300, 309.881 210.500 L 311.657 214.500 312.315 204.500 C 312.862 196.169, 314.938 185.251, 317.589 176.750 C 318.059 175.244, 317.438 175, 313.126 175 C 310.333 175, 307.793 175.526, 307.383 176.190 M 318.226 185.250 C 317.066 190.338, 315.608 198.550, 314.986 203.500 C 314.365 208.450, 313.446 213.270, 312.944 214.210 C 311.170 217.539, 312.893 219.158, 317.883 218.850 L 322.500 218.565 323.035 222.533 C 323.329 224.715, 323.918 227.063, 324.344 227.750 C 325.663 229.881, 326.999 229.130, 327.014 226.250 C 327.040 220.920, 328.063 218.999, 330.867 219.017 C 337.446 219.061, 352.173 223.464, 369.242 230.491 C 370.873 231.162, 370.888 230.935, 369.481 226.945 C 364.564 213.010, 366.661 189.201, 373.769 178.250 L 375.230 176 359.634 176 C 344.278 176, 344.030 176.035, 343.529 178.250 C 342.492 182.830, 341 197.635, 340.986 203.474 C 340.971 210.197, 340.211 214, 338.883 214 C 337.211 214, 338.319 191.974, 340.632 179.250 C 341.138 176.465, 340.935 176, 339.211 176 C 337.631 176, 336.966 177.018, 336.112 180.750 C 334.114 189.471, 333.015 198.429, 333.008 206.044 L 333 213.588 325.902 213.588 L 318.804 213.588 319.473 206.044 C 319.841 201.895, 321.010 194.154, 322.071 188.843 C 324.450 176.935, 324.457 176, 322.168 176 C 320.676 176, 319.944 177.717, 318.226 185.250 M 257.569 242 L 256.879 249 250.939 249 C 245.372 249, 245 249.147, 245 251.350 C 245 253.592, 245.406 253.729, 253.817 254.326 C 272.382 255.644, 287.793 262.728, 310.098 280.197 L 319.697 287.715 317.380 280.417 C 313.876 269.383, 312.563 256.908, 313.796 246.347 C 314.364 241.481, 314.654 237.324, 314.440 237.110 C 313.918 236.584, 274.666 235.104, 273.882 235.580 C 273.542 235.786, 273.490 239.115, 273.766 242.977 C 274.110 247.777, 273.916 250, 273.153 250 C 271.963 250, 271.471 248.290, 270.493 240.750 C 269.949 236.550, 269.595 236, 267.439 236 C 265.086 236, 265 236.247, 265 243 C 265 246.850, 264.598 250, 264.107 250 C 262.685 250, 262 247.243, 262 241.525 C 262 236.706, 261.097 235, 258.547 235 C 258.388 235, 257.948 238.150, 257.569 242 M 160 238.911 C 160 240.145, 165.861 245.004, 167.327 244.985 C 167.972 244.977, 170.300 243.419, 172.500 241.523 L 176.500 238.075 168.250 238.038 C 163.713 238.017, 160 238.410, 160 238.911 M 189.250 240.670 C 185.723 242.385, 184.874 245, 187.845 245 C 189.942 245, 193.385 241.633, 192.853 240.103 C 192.637 239.485, 191.235 239.705, 189.250 240.670 M 204.635 240.713 C 205.045 242.281, 203.238 244.228, 196.056 249.955 C 186.435 257.628, 184.433 260.100, 184.874 263.763 C 185.024 265.008, 184.619 267.625, 183.974 269.580 C 183.328 271.535, 182.979 273.312, 183.196 273.530 C 183.414 273.748, 186.272 272.088, 189.546 269.843 C 201.177 261.868, 214.761 257.125, 231.974 255.031 C 236.634 254.464, 241.043 254, 241.771 254 C 242.761 254, 243.020 252.420, 242.798 247.751 L 242.500 241.502 238.230 240.604 C 235.881 240.111, 233.704 239.963, 233.392 240.275 C 233.079 240.587, 233.844 242.223, 235.091 243.909 C 236.338 245.596, 237.109 247.225, 236.804 247.529 C 236.499 247.834, 231.658 246.254, 226.045 244.018 C 220.433 241.782, 213.203 239.677, 209.979 239.340 C 204.480 238.765, 204.148 238.850, 204.635 240.713 M 336 248.941 C 336 257.050, 334.406 259.180, 333.510 252.269 C 332.428 243.932, 332.073 243, 329.981 243 C 328.211 243, 328 243.687, 328 249.443 L 328 255.885 323.750 256.193 C 320.217 256.448, 319.446 256.880, 319.180 258.750 C 318.892 260.783, 319.277 261.002, 323.180 261.017 C 335.566 261.067, 353.098 268.039, 369.372 279.385 L 378.645 285.850 376.737 277.175 C 375.258 270.449, 374.912 265.661, 375.198 255.864 L 375.567 243.227 370.533 242.622 C 367.765 242.290, 358.863 242.013, 350.750 242.009 L 336 242 336 248.941 M 419.133 248.183 C 418.547 250.007, 417.579 256.450, 416.982 262.500 C 416.385 268.550, 415.358 274.010, 414.699 274.633 C 412.634 276.586, 397.610 285, 396.188 285 C 394.701 285, 395.036 287.179, 396.603 287.701 C 397.636 288.045, 409.351 281.296, 414.600 277.332 C 417.606 275.062, 417.720 274.688, 418.359 264.937 C 418.721 259.408, 419.479 252.825, 420.043 250.309 C 421.259 244.881, 420.651 243.460, 419.133 248.183 M 180.473 248.030 C 178.855 249.818, 178.792 250.256, 180.040 251.046 C 182.045 252.314, 182.558 252.237, 184.042 250.450 C 185.099 249.176, 185.064 248.635, 183.847 247.419 C 182.539 246.111, 182.145 246.182, 180.473 248.030 M 174.397 252.471 C 172.631 253.780, 172.615 253.994, 174.154 255.557 C 176.070 257.503, 178 256.722, 178 254 C 178 251.387, 176.639 250.809, 174.397 252.471 M 166.593 258.849 C 166.267 259.377, 157.900 265.982, 148 273.527 C 135.543 283.022, 130 287.845, 130 289.191 C 130 290.719, 129.519 291.006, 127.750 290.531 C 125.972 290.054, 126.088 290.262, 128.304 291.524 C 131.107 293.120, 131.111 293.118, 140.304 285.550 C 145.362 281.387, 154.316 274.272, 160.203 269.740 C 166.324 265.028, 170.814 260.863, 170.692 260.011 C 170.442 258.282, 167.465 257.438, 166.593 258.849 M 164.394 276.118 C 156.752 282.257, 147.662 289.753, 144.193 292.775 L 137.886 298.269 141.903 300.068 C 144.112 301.057, 149.229 303.875, 153.275 306.331 C 161.444 311.290, 180.418 321, 181.940 321 C 182.476 321, 187.399 314.363, 192.879 306.250 L 202.842 291.500 200.171 290.868 C 198.702 290.521, 191.762 290.183, 184.750 290.118 C 175.016 290.028, 172 289.693, 172 288.700 C 172 287.985, 172.407 286.973, 172.905 286.450 C 173.929 285.375, 179.235 265.902, 178.660 265.327 C 178.455 265.122, 172.036 269.978, 164.394 276.118 M 386.750 265.735 C 378.099 266.417, 381.768 268, 392 268 C 400.222 268, 402 267.733, 402 266.500 C 402 264.961, 398.681 264.794, 386.750 265.735 M 383.246 276.250 C 383.693 277.602, 395.723 278.537, 399.729 277.532 C 404.993 276.211, 401.496 275, 392.417 275 C 385.196 275, 382.935 275.308, 383.246 276.250 M 194.630 306.250 C 188.873 314.637, 184.485 321.837, 184.879 322.248 C 186.494 323.933, 211.132 332.267, 211.958 331.408 C 212.670 330.668, 223 293.369, 223 291.538 C 223 291.242, 218.972 291, 214.049 291 L 205.098 291 194.630 306.250 M 226.673 292.409 C 226.422 293.063, 224.145 301.972, 221.612 312.208 C 219.079 322.444, 216.771 331.432, 216.484 332.182 C 216.152 333.046, 217.135 333.990, 219.164 334.756 C 220.926 335.421, 222.549 335.784, 222.771 335.562 C 222.992 335.341, 224.656 327.136, 226.467 317.330 C 228.278 307.523, 230.078 297.875, 230.465 295.889 C 231.071 292.787, 230.886 292.203, 229.150 291.749 C 228.038 291.459, 226.924 291.756, 226.673 292.409 M 234.551 293.250 C 233.743 295.866, 226.839 337.170, 227.161 337.461 C 227.348 337.629, 228.963 338.080, 230.750 338.463 C 233.809 339.118, 234.003 338.993, 234.044 336.329 C 234.068 334.773, 234.920 324.500, 235.938 313.500 C 236.956 302.500, 237.585 293.163, 237.335 292.750 C 236.625 291.575, 234.977 291.871, 234.551 293.250 M 407.493 297.631 C 398.712 302.920, 392.795 307.129, 393.354 307.687 C 393.920 308.254, 412.756 297.203, 413.627 295.794 C 414.915 293.711, 413.096 294.256, 407.493 297.631 M 132 297 C 132.825 297.533, 134.175 297.969, 135 297.969 C 136.333 297.969, 136.333 297.862, 135 297 C 134.175 296.467, 132.825 296.031, 132 296.031 C 130.667 296.031, 130.667 296.138, 132 297 M 103.698 298.876 C 100.128 299.462, 99.984 299.620, 101.338 301.460 C 102.611 303.190, 103.108 303.272, 105.554 302.158 C 110.392 299.953, 120.192 299.531, 123.756 301.374 C 128.001 303.569, 129.199 303.421, 128.820 300.750 C 128.513 298.589, 128.084 298.495, 118 298.376 C 112.225 298.308, 105.789 298.533, 103.698 298.876 M 263 300.342 C 263 302.476, 267.993 331.110, 269.086 335.250 C 269.940 338.480, 270.474 339, 272.941 339 L 275.804 339 274.489 334.629 C 273.765 332.224, 271.992 324.237, 270.548 316.879 C 269.105 309.520, 267.501 302.488, 266.983 301.250 C 265.968 298.820, 263 298.144, 263 300.342 M 271.913 299.664 C 270.497 300.039, 270.581 301.239, 272.691 310.792 C 273.992 316.681, 276.056 325.538, 277.278 330.474 C 279.405 339.062, 279.640 339.488, 282.767 340.373 C 284.564 340.883, 286.248 341.085, 286.510 340.823 C 286.772 340.561, 285.997 337.457, 284.789 333.924 C 283.580 330.391, 280.996 321.236, 279.046 313.580 C 277.095 305.925, 275.050 299.567, 274.500 299.453 C 273.950 299.338, 272.786 299.433, 271.913 299.664 M 280 300.198 C 280 300.858, 281.135 305.117, 282.522 309.664 L 285.043 317.931 290.272 313.018 L 295.500 308.104 293.535 304.446 C 292.455 302.433, 290.513 300.385, 289.220 299.894 C 285.794 298.591, 280 298.783, 280 300.198 M 298 299.394 C 298 300.934, 300.480 305, 301.420 305 C 302.024 305, 303.108 304.056, 303.829 302.903 C 305.800 299.746, 306.381 301.362, 304.549 304.905 C 303.067 307.771, 303.080 308.192, 304.724 310.701 L 306.497 313.407 307.130 310.453 C 307.478 308.829, 307.817 305.900, 307.882 303.946 C 307.998 300.458, 307.921 300.386, 303.822 300.144 C 301.524 300.009, 299.274 299.669, 298.822 299.390 C 298.370 299.111, 298 299.112, 298 299.394 M 256.460 312.250 C 256.862 318.988, 257.486 327.418, 257.846 330.985 L 258.500 337.471 262.268 338.081 C 265.419 338.591, 265.956 338.430, 265.544 337.096 C 264.732 334.469, 260 304.753, 260 302.285 C 260 300.618, 259.422 300, 257.865 300 C 255.760 300, 255.740 300.179, 256.460 312.250 M 311.676 301.402 C 311.380 302.173, 311.292 302.961, 311.481 303.152 C 312.191 303.871, 327 302.807, 327 302.038 C 327 299.744, 312.542 299.145, 311.676 301.402 M 364.193 301.080 C 364.422 301.767, 365.640 303.013, 366.898 303.849 C 369.086 305.301, 369.172 305.261, 368.844 302.934 C 368.608 301.265, 367.758 300.395, 366.139 300.166 C 364.593 299.947, 363.921 300.263, 364.193 301.080 M 372 302.878 C 372 303.910, 372.668 305.309, 373.483 305.986 C 374.714 307.008, 375.140 306.762, 375.983 304.544 C 377.343 300.966, 377.357 301, 374.500 301 C 372.721 301, 372 301.541, 372 302.878 M 330.382 313.250 C 330.749 319.438, 331.321 327.087, 331.653 330.250 C 332.253 335.952, 332.285 336, 335.523 336 C 338.773 336, 338.784 335.983, 337.977 332.250 C 337.531 330.188, 336.367 322.538, 335.390 315.250 C 333.799 303.391, 333.408 302, 331.664 302 C 329.808 302, 329.747 302.537, 330.382 313.250 M 335.856 303.750 C 336.366 304.712, 337.523 309.325, 338.428 314 C 342.936 337.296, 342.838 337, 346.068 337 C 349.556 337, 349.556 337.010, 347.090 325.453 C 346.039 320.529, 344.648 313.238, 343.999 309.250 L 342.819 302 338.874 302 C 335.431 302, 335.047 302.223, 335.856 303.750 M 348 304.192 C 348 306.686, 353.453 332.999, 353.964 332.970 C 354.680 332.930, 365.452 313.486, 365.375 312.372 C 365.314 311.490, 350.311 303, 348.812 303 C 348.365 303, 348 303.537, 348 304.192 M 408.954 306.199 C 407.054 307.368, 401.021 310.664, 395.546 313.523 C 384.783 319.145, 381.319 322.518, 390.462 318.474 C 397.383 315.414, 409.994 308.356, 411.940 306.455 C 414.355 304.096, 412.614 303.947, 408.954 306.199 M 136.600 309.512 C 138.264 312.052, 142.503 313.832, 143.797 312.535 C 144.824 311.505, 139.229 307, 136.921 307 C 135.050 307, 135.034 307.123, 136.600 309.512 M 291.061 314.837 L 285.622 319.652 288.922 330.076 C 290.737 335.809, 292.734 340.831, 293.361 341.235 C 293.987 341.639, 296.179 341.976, 298.231 341.985 C 302.363 342.002, 301.928 342.802, 304.414 330.597 C 305.187 326.801, 305.561 322.976, 305.245 322.097 C 304.510 320.053, 297.661 310.024, 297 310.023 C 296.725 310.022, 294.052 312.189, 291.061 314.837 M 148.223 316.557 C 147 317.413, 146 318.514, 146 319.003 C 146 320.497, 171.656 332.543, 186.472 338.006 C 218.721 349.897, 244.339 356.126, 287 362.452 C 296.625 363.879, 305.445 365.253, 306.600 365.505 C 308.156 365.844, 309.673 368.310, 312.461 375.037 C 314.530 380.028, 316.444 383.890, 316.715 383.619 C 317.361 382.973, 311.290 364.779, 309.705 362.611 C 308.803 361.378, 302.591 359.886, 286.235 356.975 C 245.419 349.711, 220.917 343.501, 192.500 333.221 C 179.606 328.556, 164.652 322.067, 157.265 317.931 C 151.176 314.521, 151.137 314.516, 148.223 316.557 M 368.498 318.750 C 363.892 327.576, 355.643 341.562, 354.615 342.286 C 353.564 343.027, 345.793 342.629, 336.250 341.345 C 332.863 340.889, 332 341.082, 332 342.293 C 332 343.504, 333.987 343.950, 341.750 344.484 C 347.113 344.853, 352.240 345.361, 353.145 345.612 C 354.049 345.863, 355.495 345.363, 356.356 344.501 C 357.807 343.051, 370.033 320.714, 371.546 316.750 C 372.803 313.456, 370.457 314.995, 368.498 318.750 M 401 319.998 C 395.775 322.692, 389.250 325.649, 386.500 326.571 C 381.268 328.323, 379.253 329.586, 380.189 330.523 C 381.592 331.925, 412 318.033, 412 315.990 C 412 314.456, 411.156 314.763, 401 319.998 M 109.635 324.073 C 102.229 329.898, 113.016 341.221, 123.471 338.597 C 129.467 337.092, 132.273 329.367, 128.171 325.655 C 125.758 323.471, 125.111 323.564, 124.031 326.250 C 123.210 328.292, 123.121 328.200, 123.063 325.250 C 123.016 322.845, 122.545 322.001, 121.250 322.002 C 119.806 322.004, 119.500 322.922, 119.500 327.252 C 119.500 331.837, 119.768 332.538, 121.620 332.802 C 123.112 333.015, 123.941 332.424, 124.421 330.802 L 125.102 328.500 126.019 330.751 C 127.294 333.880, 126.228 336, 123.379 336 C 122.056 336, 120.123 336.531, 119.085 337.179 C 115.017 339.719, 109.715 332.625, 111.493 327.022 C 112.646 323.389, 114.857 324.694, 115.268 329.250 C 115.600 332.936, 115.674 332.737, 115.825 327.750 C 115.977 322.743, 115.759 322, 114.135 322 C 113.109 322, 111.084 322.933, 109.635 324.073 M 398 331.437 C 396.625 332.183, 391 334.259, 385.500 336.049 C 375.471 339.314, 373.126 340.459, 374.223 341.556 C 375.643 342.976, 403 332.388, 403 330.418 C 403 329.588, 400.449 330.108, 398 331.437 M 261.745 344.056 C 264.175 346.196, 319.187 354.252, 340 355.515 C 345.225 355.832, 350.738 356.285, 352.250 356.521 C 354.126 356.814, 355 356.513, 355 355.573 C 355 354.100, 355.532 354.180, 327.171 351.389 C 318.190 350.505, 299.626 348.344, 285.917 346.587 C 272.207 344.829, 261.330 343.690, 261.745 344.056 M 385.364 345.968 C 380.890 347.518, 375.403 349.094, 373.172 349.471 C 369.098 350.159, 365.135 353, 368.248 353 C 373.422 353, 395 345.319, 395 343.477 C 395 342.720, 393.991 342.980, 385.364 345.968 M 153.250 355.130 C 151.468 356.940, 151.704 358.771, 153.868 359.929 C 156.100 361.124, 179.297 368.593, 194 372.852 C 248.617 388.671, 307.144 397.664, 337.910 394.964 C 357.403 393.254, 383.003 386.731, 385.021 382.961 C 386.386 380.410, 385.869 380.436, 375.188 383.459 C 357.090 388.582, 349.910 389.474, 327 389.446 C 304.412 389.417, 299.439 388.889, 265.806 382.949 C 243.492 379.007, 206.161 369.536, 181 361.434 C 157.831 353.972, 155.018 353.333, 153.250 355.130 M 385.114 356.082 C 383.801 356.607, 378.176 358.199, 372.614 359.620 C 363.042 362.066, 360.009 363.342, 361.122 364.456 C 362.407 365.741, 391 357.571, 391 355.918 C 391 354.761, 388.223 354.838, 385.114 356.082 M 329.250 361.662 C 327.530 362.356, 327.668 367.935, 329.422 368.608 C 331.744 369.500, 335 367.144, 335 364.572 C 335 361.653, 332.460 360.367, 329.250 361.662 M 242 362.756 C 242 363.292, 242.884 364.854, 243.965 366.228 C 246.349 369.259, 249.205 369.866, 280.500 373.990 C 293.150 375.657, 304.546 377.258, 305.824 377.548 C 307.769 377.989, 308.096 377.718, 307.824 375.890 C 307.646 374.688, 306.825 373.366, 306 372.951 C 304.740 372.319, 255.441 363.614, 245.250 362.224 C 243.463 361.981, 242 362.220, 242 362.756 M 339 364.937 C 339 367.782, 339.254 368, 342.566 368 C 345.867 368, 346.109 367.795, 345.816 365.250 C 345.553 362.959, 344.958 362.448, 342.250 362.187 C 339.222 361.895, 339 362.083, 339 364.937 M 350.667 362.667 C 349.409 363.925, 350 367, 351.500 367 C 352.433 367, 353 366.056, 353 364.500 C 353 362.072, 352.026 361.307, 350.667 362.667 M 384.867 365.466 C 384.611 365.722, 379.046 367.454, 372.502 369.313 C 365.957 371.173, 360.429 373.213, 360.218 373.847 C 360.006 374.481, 360.605 375, 361.548 375 C 365.144 375, 387.902 367.698, 388.407 366.382 C 388.904 365.087, 385.998 364.335, 384.867 365.466 M 247 371.528 C 247 372.203, 247.568 373.226, 248.262 373.802 C 249.829 375.103, 266.008 377.992, 271.750 377.997 C 276.513 378, 277.473 376.361, 273.250 375.436 C 271.738 375.104, 269.825 374.607, 269 374.332 C 268.175 374.056, 262.887 373.036, 257.250 372.066 C 249.445 370.722, 247 370.594, 247 371.528 M 350.639 374.694 C 349.403 375.930, 350.017 379, 351.500 379 C 352.325 379, 353 378.127, 353 377.059 C 353 374.972, 351.682 373.651, 350.639 374.694 M 328.163 375.878 C 327.427 376.345, 326.977 377.800, 327.163 379.113 C 327.568 381.981, 331.676 382.461, 333.333 379.834 C 335.238 376.813, 331.364 373.849, 328.163 375.878 M 339.411 376.371 C 337.764 380.663, 340.914 383.264, 344.519 380.587 C 346.105 379.410, 346.280 378.757, 345.398 377.309 C 343.981 374.984, 340.172 374.388, 339.411 376.371 M 375.500 393.690 C 344.125 404.495, 318.876 405.287, 255.111 397.464 C 248.297 396.628, 242.545 396.121, 242.329 396.337 C 241.804 396.863, 272.689 401.676, 286.500 403.221 C 292.550 403.898, 306.950 404.434, 318.500 404.414 C 337.374 404.380, 340.766 404.106, 352 401.709 C 367.619 398.376, 380.372 394.462, 382 392.500 C 382.685 391.675, 383.077 391.063, 382.872 391.139 C 382.668 391.216, 379.350 392.364, 375.500 393.690 M 198.083 397.382 C 199.864 399.017, 246.113 408.428, 272.090 412.443 C 311.889 418.593, 332.086 418.115, 358.811 410.387 C 368.400 407.615, 379 403.173, 379 401.927 C 379 401.487, 375.063 402.476, 370.250 404.124 C 354.013 409.686, 345.868 411.094, 326.432 411.697 C 307.514 412.283, 293.115 411.392, 265.500 407.925 C 248.845 405.834, 218.970 401.018, 206.875 398.474 C 199.816 396.989, 197.316 396.679, 198.083 397.382 M 358.002 424.665 C 342.558 430.100, 330.615 432.575, 312.500 434.096 C 297.328 435.370, 263.714 434.823, 241.482 432.941 C 220.708 431.182, 219.808 432.292, 240 434.770 C 269.153 438.348, 284.208 439.293, 302.500 438.694 C 322.377 438.043, 332.408 436.173, 351.962 429.476 C 365.745 424.755, 370.437 422.721, 371.496 421.007 C 372.345 419.632, 372.169 419.680, 358.002 424.665" stroke="none" fill="black" fill-rule="evenodd"/>
</svg>